<svg xmlns="http://www.w3.org/2000/svg" fill="none" height="68" viewBox="0 0 211 68" width="211"><g fill="#fff"><path d="m40.3634 28.9644c0-3.7327-3.0335-6.7583-6.7759-6.7583-3.7422 0-6.776 3.0256-6.776 6.7583 0 2.6118 1.4879 4.8733 3.6622 5.9984l-2.5113 10.8311h11.2501l-2.511-10.8311c2.1741-1.1251 3.6619-3.3866 3.6619-5.9984z"></path><path d="m60.0901 42.5178c-1.316 10.1913-10.0648 18.0933-20.635 18.0933h-11.736c-11.476 0-20.8125-9.3122-20.8125-20.7585v-11.7052c0-11.4463 9.3365-20.75852 20.8125-20.75852h11.736c10.5702 0 19.3187 7.90222 20.635 18.09362h6.9528c-1.3489-13.999-13.205-24.9825-27.5878-24.9825h-11.736c-15.2843 0-27.7191 12.4027-27.7191 27.6474v11.7052c0 15.2449 12.4348 27.6474 27.7191 27.6474h11.736c14.3828 0 26.2389-10.9837 27.5878-24.9822z"></path><path d="m126.14 19.5029h-6.915v32.1844h6.915z"></path><path d="m147.112 44.1512-8.8-24.6483h-7.427l11.912 32.1844h8.379l11.912-32.1844h-7.303z"></path><path d="m174.747 19.5029h-6.915v32.1844h6.915z"></path><path d="m203.686 40.5481c-.942 3.525-3.732 5.6189-7.547 5.6189-5.364 0-8.968-4.2232-8.968-10.5091 0-6.3605 3.604-10.6341 8.968-10.6341 3.923 0 6.606 1.994 7.606 5.619h7.252c-1.48-7.3199-6.824-11.5151-14.733-11.5151-4.787 0-8.854 1.5709-11.761 4.5429-2.902 2.9671-4.436 7.1122-4.436 11.9874 0 4.9266 1.502 9.0664 4.342 11.9717 2.836 2.9004 6.87 4.4335 11.667 4.4335 7.969 0 13.514-4.3004 14.924-11.5151z"></path><path d="m106.274 40.5481c-.942 3.525-3.732 5.6189-7.5475 5.6189-5.3637 0-8.9674-4.2232-8.9674-10.5091 0-6.3605 3.6037-10.6341 8.9674-10.6341 3.9235 0 6.6065 1.994 7.6065 5.619h7.252c-1.481-7.3199-6.824-11.5151-14.7329-11.5151-4.7872 0-8.8539 1.5709-11.7608 4.5429-2.902 2.9671-4.436 7.1122-4.436 11.9874 0 4.9266 1.5014 9.0663 4.3417 11.9717 2.8356 2.9004 6.87 4.4335 11.6669 4.4335 7.9701 0 13.5151-4.3004 14.9231-11.5151z"></path></g></svg>