<svg xmlns="http://www.w3.org/2000/svg" xmlns:xlink="http://www.w3.org/1999/xlink" width="140" zoomAndPan="magnify" viewBox="0 0 104.88 30.000001" height="40" preserveAspectRatio="xMidYMid meet" version="1.0"><defs><g/><clipPath id="aa1605e30a"><path d="M 14.464844 2.558594 L 21.847656 2.558594 L 21.847656 9.878906 L 14.464844 9.878906 Z M 14.464844 2.558594 " clip-rule="nonzero"/></clipPath><clipPath id="f27430ef1d"><path d="M 14.464844 13.023438 L 21.847656 13.023438 L 21.847656 26.472656 L 14.464844 26.472656 Z M 14.464844 13.023438 " clip-rule="nonzero"/></clipPath><clipPath id="6a6e0d4a66"><path d="M 5.324219 13.023438 L 21.847656 13.023438 L 21.847656 20.402344 L 5.324219 20.402344 Z M 5.324219 13.023438 " clip-rule="nonzero"/></clipPath><clipPath id="1ea411c2a9"><path d="M 1.632812 2.558594 L 9.015625 2.558594 L 9.015625 26.472656 L 1.632812 26.472656 Z M 1.632812 2.558594 " clip-rule="nonzero"/></clipPath></defs><g clip-path="url(#aa1605e30a)"><path fill="#f78a1d" d="M 14.464844 2.558594 L 21.84375 2.558594 L 21.84375 9.878906 L 14.464844 9.878906 Z M 14.464844 2.558594 " fill-opacity="1" fill-rule="nonzero"/></g><g clip-path="url(#f27430ef1d)"><path fill="#ffffff" d="M 14.464844 13.023438 L 21.847656 13.023438 L 21.847656 26.457031 L 14.464844 26.457031 Z M 14.464844 13.023438 " fill-opacity="1" fill-rule="nonzero"/></g><g clip-path="url(#6a6e0d4a66)"><path fill="#ffffff" d="M 5.324219 20.402344 L 5.324219 13.023438 L 21.84375 13.023438 L 21.84375 20.402344 Z M 5.324219 20.402344 " fill-opacity="1" fill-rule="nonzero"/></g><g clip-path="url(#1ea411c2a9)"><path fill="#062e6b" d="M 1.632812 2.558594 L 9.015625 2.558594 L 9.015625 26.460938 L 1.632812 26.460938 Z M 1.632812 2.558594 " fill-opacity="1" fill-rule="nonzero"/></g><g fill="#f78a1d" fill-opacity="1"><g transform="translate(26.476858, 17.12945)"><g><path d="M 4.359375 0 L 4.359375 -2.328125 L 2.453125 -2.328125 L 2.453125 0 L 0.65625 0 L 0.65625 -6.21875 L 2.453125 -6.21875 L 2.453125 -3.984375 L 4.359375 -3.984375 L 4.359375 -6.21875 L 6.15625 -6.21875 L 6.15625 0 Z M 4.359375 0 "/></g></g></g><g fill="#f78a1d" fill-opacity="1"><g transform="translate(33.287805, 17.12945)"><g><path d="M 0.046875 0 L 2.453125 -6.21875 L 4.234375 -6.21875 L 6.640625 0 L 4.734375 0 L 4.40625 -0.875 L 2.28125 -0.875 L 1.9375 0 Z M 2.65625 -2.1875 L 4.03125 -2.1875 L 3.34375 -4.125 Z M 2.65625 -2.1875 "/></g></g></g><g fill="#f78a1d" fill-opacity="1"><g transform="translate(39.974592, 17.12945)"><g><path d="M 3.5625 0.140625 C 2.914062 0.140625 2.347656 0.00390625 1.859375 -0.265625 C 1.367188 -0.546875 0.984375 -0.925781 0.703125 -1.40625 C 0.429688 -1.894531 0.296875 -2.460938 0.296875 -3.109375 C 0.296875 -3.742188 0.429688 -4.304688 0.703125 -4.796875 C 0.984375 -5.285156 1.363281 -5.664062 1.84375 -5.9375 C 2.332031 -6.207031 2.898438 -6.34375 3.546875 -6.34375 C 4.097656 -6.34375 4.597656 -6.234375 5.046875 -6.015625 C 5.492188 -5.804688 5.867188 -5.507812 6.171875 -5.125 C 6.484375 -4.738281 6.691406 -4.285156 6.796875 -3.765625 L 4.984375 -3.765625 C 4.890625 -4.046875 4.71875 -4.269531 4.46875 -4.4375 C 4.21875 -4.601562 3.929688 -4.6875 3.609375 -4.6875 C 3.316406 -4.6875 3.054688 -4.617188 2.828125 -4.484375 C 2.609375 -4.347656 2.4375 -4.160156 2.3125 -3.921875 C 2.1875 -3.691406 2.125 -3.421875 2.125 -3.109375 C 2.125 -2.796875 2.1875 -2.519531 2.3125 -2.28125 C 2.4375 -2.039062 2.609375 -1.851562 2.828125 -1.71875 C 3.046875 -1.59375 3.300781 -1.53125 3.59375 -1.53125 C 3.925781 -1.53125 4.21875 -1.613281 4.46875 -1.78125 C 4.71875 -1.957031 4.898438 -2.191406 5.015625 -2.484375 L 6.828125 -2.484375 C 6.742188 -1.953125 6.550781 -1.488281 6.25 -1.09375 C 5.945312 -0.707031 5.566406 -0.40625 5.109375 -0.1875 C 4.648438 0.03125 4.132812 0.140625 3.5625 0.140625 Z M 3.5625 0.140625 "/></g></g></g><g fill="#f78a1d" fill-opacity="1"><g transform="translate(47.087065, 17.12945)"><g><path d="M 0.65625 0 L 0.65625 -6.21875 L 2.453125 -6.21875 L 2.453125 -3.984375 L 2.75 -3.984375 C 2.96875 -3.984375 3.140625 -4 3.265625 -4.03125 C 3.390625 -4.070312 3.488281 -4.140625 3.5625 -4.234375 C 3.644531 -4.335938 3.71875 -4.476562 3.78125 -4.65625 L 4.34375 -6.21875 L 6.28125 -6.21875 L 5.359375 -3.890625 C 5.210938 -3.535156 5.046875 -3.242188 4.859375 -3.015625 L 6.5 0 L 4.421875 0 L 3.234375 -2.359375 L 2.453125 -2.359375 L 2.453125 0 Z M 0.65625 0 "/></g></g></g><g fill="#ffffff" fill-opacity="1"><g transform="translate(53.796666, 17.12945)"><g><path d="M 2.140625 0 L 2.140625 -4.546875 L 0.25 -4.546875 L 0.25 -6.21875 L 5.8125 -6.21875 L 5.8125 -4.546875 L 3.921875 -4.546875 L 3.921875 0 Z M 2.140625 0 "/></g></g></g><g fill="#ffffff" fill-opacity="1"><g transform="translate(59.853798, 17.12945)"><g><path d="M 0.65625 0 L 0.65625 -6.21875 L 2.453125 -6.21875 L 2.453125 0 Z M 0.65625 0 "/></g></g></g><g fill="#ffffff" fill-opacity="1"><g transform="translate(62.957746, 17.12945)"><g><path d="M 2.375 0 L 0.046875 -6.21875 L 1.96875 -6.21875 L 2.703125 -4.15625 L 3.28125 -2.546875 L 3.859375 -4.15625 L 4.578125 -6.21875 L 6.484375 -6.21875 L 4.15625 0 Z M 2.375 0 "/></g></g></g><g fill="#ffffff" fill-opacity="1"><g transform="translate(69.48491, 17.12945)"><g><path d="M 0.046875 0 L 2.453125 -6.21875 L 4.234375 -6.21875 L 6.640625 0 L 4.734375 0 L 4.40625 -0.875 L 2.28125 -0.875 L 1.9375 0 Z M 2.65625 -2.1875 L 4.03125 -2.1875 L 3.34375 -4.125 Z M 2.65625 -2.1875 "/></g></g></g><g fill="#ffffff" fill-opacity="1"><g transform="translate(76.171696, 17.12945)"><g><path d="M 2.140625 0 L 2.140625 -4.546875 L 0.25 -4.546875 L 0.25 -6.21875 L 5.8125 -6.21875 L 5.8125 -4.546875 L 3.921875 -4.546875 L 3.921875 0 Z M 2.140625 0 "/></g></g></g><g fill="#ffffff" fill-opacity="1"><g transform="translate(82.228829, 17.12945)"><g><path d="M 3.6875 0.140625 C 3.1875 0.140625 2.726562 0.0625 2.3125 -0.09375 C 1.90625 -0.257812 1.550781 -0.484375 1.25 -0.765625 C 0.945312 -1.054688 0.710938 -1.398438 0.546875 -1.796875 C 0.378906 -2.191406 0.296875 -2.628906 0.296875 -3.109375 C 0.296875 -3.578125 0.378906 -4.007812 0.546875 -4.40625 C 0.710938 -4.800781 0.945312 -5.144531 1.25 -5.4375 C 1.550781 -5.726562 1.90625 -5.953125 2.3125 -6.109375 C 2.726562 -6.265625 3.1875 -6.34375 3.6875 -6.34375 C 4.175781 -6.34375 4.625 -6.265625 5.03125 -6.109375 C 5.445312 -5.953125 5.804688 -5.726562 6.109375 -5.4375 C 6.410156 -5.144531 6.644531 -4.800781 6.8125 -4.40625 C 6.976562 -4.007812 7.0625 -3.578125 7.0625 -3.109375 C 7.0625 -2.628906 6.976562 -2.191406 6.8125 -1.796875 C 6.644531 -1.398438 6.410156 -1.054688 6.109375 -0.765625 C 5.804688 -0.484375 5.445312 -0.257812 5.03125 -0.09375 C 4.625 0.0625 4.175781 0.140625 3.6875 0.140625 Z M 2.125 -3.109375 C 2.125 -2.796875 2.1875 -2.519531 2.3125 -2.28125 C 2.445312 -2.039062 2.632812 -1.851562 2.875 -1.71875 C 3.113281 -1.59375 3.382812 -1.53125 3.6875 -1.53125 C 3.988281 -1.53125 4.253906 -1.59375 4.484375 -1.71875 C 4.722656 -1.851562 4.910156 -2.039062 5.046875 -2.28125 C 5.179688 -2.519531 5.25 -2.796875 5.25 -3.109375 C 5.25 -3.421875 5.179688 -3.691406 5.046875 -3.921875 C 4.910156 -4.160156 4.722656 -4.347656 4.484375 -4.484375 C 4.253906 -4.617188 3.988281 -4.6875 3.6875 -4.6875 C 3.382812 -4.6875 3.113281 -4.617188 2.875 -4.484375 C 2.632812 -4.347656 2.445312 -4.160156 2.3125 -3.921875 C 2.1875 -3.691406 2.125 -3.421875 2.125 -3.109375 Z M 2.125 -3.109375 "/></g></g></g><g fill="#ffffff" fill-opacity="1"><g transform="translate(89.598484, 17.12945)"><g><path d="M 0.65625 0 L 0.65625 -6.21875 L 3.484375 -6.21875 C 3.992188 -6.21875 4.425781 -6.125 4.78125 -5.9375 C 5.144531 -5.757812 5.425781 -5.503906 5.625 -5.171875 C 5.820312 -4.835938 5.921875 -4.441406 5.921875 -3.984375 C 5.921875 -3.554688 5.832031 -3.179688 5.65625 -2.859375 C 5.476562 -2.535156 5.226562 -2.28125 4.90625 -2.09375 L 6.046875 0 L 4.015625 0 L 3.125 -1.765625 L 2.453125 -1.765625 L 2.453125 0 Z M 2.40625 -3.1875 L 3.25 -3.1875 C 3.53125 -3.1875 3.742188 -3.253906 3.890625 -3.390625 C 4.046875 -3.535156 4.125 -3.726562 4.125 -3.96875 C 4.125 -4.21875 4.046875 -4.410156 3.890625 -4.546875 C 3.742188 -4.679688 3.53125 -4.75 3.25 -4.75 L 2.40625 -4.75 Z M 2.40625 -3.1875 "/></g></g></g><g fill="#ffffff" fill-opacity="1"><g transform="translate(95.983745, 17.12945)"><g><path d="M 2.890625 0.140625 C 2.078125 0.140625 1.441406 -0.0507812 0.984375 -0.4375 C 0.535156 -0.820312 0.3125 -1.347656 0.3125 -2.015625 L 2.046875 -2.015625 C 2.046875 -1.773438 2.113281 -1.585938 2.25 -1.453125 C 2.394531 -1.328125 2.597656 -1.265625 2.859375 -1.265625 C 3.078125 -1.265625 3.25 -1.304688 3.375 -1.390625 C 3.5 -1.472656 3.5625 -1.59375 3.5625 -1.75 C 3.5625 -2.09375 3.1875 -2.335938 2.4375 -2.484375 C 1.050781 -2.753906 0.359375 -3.410156 0.359375 -4.453125 C 0.359375 -5.035156 0.566406 -5.492188 0.984375 -5.828125 C 1.410156 -6.171875 1.988281 -6.34375 2.71875 -6.34375 C 3.226562 -6.34375 3.671875 -6.253906 4.046875 -6.078125 C 4.421875 -5.910156 4.710938 -5.664062 4.921875 -5.34375 C 5.128906 -5.03125 5.234375 -4.664062 5.234375 -4.25 L 3.546875 -4.25 C 3.546875 -4.476562 3.476562 -4.65625 3.34375 -4.78125 C 3.207031 -4.90625 3.015625 -4.96875 2.765625 -4.96875 C 2.554688 -4.96875 2.390625 -4.925781 2.265625 -4.84375 C 2.140625 -4.757812 2.078125 -4.640625 2.078125 -4.484375 C 2.078125 -4.328125 2.160156 -4.191406 2.328125 -4.078125 C 2.492188 -3.972656 2.773438 -3.878906 3.171875 -3.796875 C 3.921875 -3.628906 4.46875 -3.382812 4.8125 -3.0625 C 5.164062 -2.75 5.34375 -2.332031 5.34375 -1.8125 C 5.34375 -1.207031 5.125 -0.726562 4.6875 -0.375 C 4.257812 -0.03125 3.660156 0.140625 2.890625 0.140625 Z M 2.890625 0.140625 "/></g></g></g></svg>